<svg xmlns="http://www.w3.org/2000/svg" width="360" height="110" viewBox="0 0 360 110" fill="none">
  <defs>
    <linearGradient id="g1" x1="18" y1="18" x2="98" y2="78" gradientUnits="userSpaceOnUse">
      <stop stop-color="#F6B000"/>
      <stop offset="0.55" stop-color="#E4557D"/>
      <stop offset="1" stop-color="#D10E72"/>
    </linearGradient>
  </defs>
  <path d="M22 68L58 32V90H44V61L22 61V68Z" fill="url(#g1)"/>
  <path d="M65 90V79H36V74H65V68H36V63H65V58H36V53H65V47H36V42H65V32H77V90H65Z" fill="url(#g1)"/>
  <path d="M116 32C131 32 143 44 143 61C143 78 131 90 116 90C101 90 89 78 89 61C89 44 101 32 116 32ZM116 45C108 45 102 52 102 61C102 70 108 77 116 77C124 77 130 70 130 61C130 52 124 45 116 45Z" fill="#D10E72"/>
  <text x="160" y="42" fill="#8C8F97" font-family="Arial, sans-serif" font-size="14" font-weight="700">THE PATHFINDER 1986 - 2026</text>
  <text x="160" y="64" fill="#D10E72" font-family="Arial, sans-serif" font-size="28" font-style="italic" font-weight="700">POSTECH</text>
  <text x="213" y="84" fill="#555B65" font-family="Arial, sans-serif" font-size="14" font-weight="700">포항공과대학교</text>
  <line x1="143" y1="88" x2="315" y2="88" stroke="#8A8F97" stroke-width="1"/>
</svg>
